<?xml version="1.0" encoding="UTF-8"?>
<svg width="38px" height="38px" viewBox="0 0 38 38" version="1.1" xmlns="http://www.w3.org/2000/svg" xmlns:xlink="http://www.w3.org/1999/xlink">
    <!-- Generator: Sketch 44 (41411) - http://www.bohemiancoding.com/sketch -->
    <title>Rocket.chat</title>
    <desc>Created with Sketch.</desc>
    <defs></defs>
    <g id="Page-1" stroke="none" stroke-width="1" fill="none" fill-rule="evenodd">
        <g id="PIPELINE_CARD_Colorless_V3" transform="translate(-1090.000000, -851.000000)">
            <g id="V3-Copy" transform="translate(230.000000, 218.000000)">
                <g id="V2">
                    <g id="follow" transform="translate(709.000000, 633.000000)">
                        <g id="Rocket.chat" transform="translate(151.000000, 0.000000)">
                            <rect id="bg" fill="#FEFEFE" x="0" y="0" width="38" height="38"></rect>
                            <g id="icon" transform="translate(7.238095, 9.047619)" fill-rule="nonzero">
                                <path d="M23.504448,9.9441221 C23.504448,8.773221 23.151357,7.65038828 22.4547623,6.60661783 C21.829347,5.66960928 20.9531201,4.8401514 19.8504474,4.14139683 C17.7217531,2.79232723 14.9237292,2.04930891 11.9723563,2.04930891 C10.9865544,2.04930891 10.0149228,2.13194383 9.07238038,2.29568254 C8.4876056,1.7527326 7.80317031,1.26416117 7.07884275,0.877758242 C3.20905917,-0.982803419 0,0.834004884 0,0.834004884 C0,0.834004884 2.98364215,3.2656801 2.49848111,5.39725275 C1.16365692,6.71092063 0.440264698,8.29494994 0.440264698,9.9441685 C0.440264698,9.94941148 0.4405453,9.95465446 0.4405453,9.95994383 C0.4405453,9.96518681 0.440264698,9.97042979 0.440264698,9.97567277 C0.440264698,11.6248913 1.16370368,13.2089206 2.49848111,14.5226349 C2.98364215,16.6541148 0,19.0858364 0,19.0858364 C0,19.0858364 3.20905917,20.9025983 7.07879599,19.042083 C7.80312354,18.6557265 8.4876056,18.1671551 9.07233362,17.6241587 C10.0148761,17.787851 10.9865544,17.8705324 11.9723096,17.8705324 C14.9236825,17.8705324 17.7217063,17.127514 19.8504006,15.778398 C20.9530266,15.0796435 21.8292534,14.2501856 22.4547155,13.313177 C23.151357,12.2694066 23.5044012,11.1466203 23.5044012,9.97567277 C23.5044012,9.97042979 23.5041206,9.96518681 23.5041206,9.95994383 C23.5041674,9.95460806 23.504448,9.94941148 23.504448,9.9441221 Z" id="Shape" fill="#1ABC9C"></path>
                                <path d="M11.9723563,3.70474481 C17.4372693,3.70474481 21.8676024,6.5122442 21.8676024,9.97562637 C21.8676024,13.438823 17.4373161,16.2465543 11.9723563,16.2465543 C10.7555253,16.2465543 9.5901848,16.1069426 8.51351453,15.8524029 C7.4193534,17.1583687 5.01216151,18.9740635 2.67376389,18.3870818 C3.43442942,17.5765079 4.56132746,16.2069304 4.32000966,13.9512894 C2.91849569,12.8691941 2.07711029,11.48463 2.07711029,9.97562637 C2.07711029,6.5122442 6.50739657,3.70474481 11.9723563,3.70474481" id="Shape" fill="#FEFEFE"></path>
                                <g id="Group" transform="translate(6.079712, 8.862027)" fill="#1ABC9C">
                                    <ellipse id="Oval" cx="5.89264414" cy="1.31547741" rx="1.31438701" ry="1.30401709"></ellipse>
                                    <ellipse id="Oval" cx="10.4630912" cy="1.31547741" rx="1.31434024" ry="1.3039707"></ellipse>
                                    <ellipse id="Oval" cx="1.3221971" cy="1.31547741" rx="1.31438701" ry="1.30401709"></ellipse>
                                </g>
                                <path d="M11.9723563,15.4214579 C10.7555253,15.4214579 9.5901848,15.3004982 8.51351453,15.0798755 C7.54735473,16.0792894 5.55741816,17.4227912 3.49508624,17.3733309 C3.22355694,17.7818657 2.92822323,18.115978 2.67376389,18.3871282 C5.01211474,18.9741099 7.4193534,17.1584615 8.51351453,15.8524493 C9.59023156,16.106989 10.7555721,16.2466007 11.9723563,16.2466007 C17.3934486,16.2466007 21.7956747,13.4835971 21.8659655,10.0587717 C21.7956747,13.0269475 17.3934486,15.4214579 11.9723563,15.4214579 Z" id="Shape" fill="#CCCCCC"></path>
                            </g>
                        </g>
                    </g>
                </g>
            </g>
        </g>
    </g>
</svg>
