<?xml version="1.0" encoding="UTF-8"?>
<svg width="38px" height="38px" viewBox="0 0 38 38" version="1.1" xmlns="http://www.w3.org/2000/svg" xmlns:xlink="http://www.w3.org/1999/xlink">
    <!-- Generator: Sketch 44 (41411) - http://www.bohemiancoding.com/sketch -->
    <title>github</title>
    <desc>Created with Sketch.</desc>
    <defs></defs>
    <g id="Page-1" stroke="none" stroke-width="1" fill="none" fill-rule="evenodd">
        <g id="PIPELINE_CARD_Colorless_V3" transform="translate(-1134.000000, -851.000000)">
            <g id="V3-Copy" transform="translate(230.000000, 218.000000)">
                <g id="V2">
                    <g id="follow" transform="translate(709.000000, 633.000000)">
                        <g id="github" transform="translate(195.000000, 0.000000)">
                            <rect id="bg" fill="#FEFEFE" x="0" y="0" width="38" height="38"></rect>
                            <path d="M18.9990002,9.04761905 C13.0043937,9.04761905 8.14285714,13.8148135 8.14285714,19.6958568 C8.14285714,24.4002992 11.2534674,28.3909371 15.5677978,29.7989361 C16.1110049,29.8969862 16.3089589,29.5681916 16.3089589,29.2858074 C16.3089589,29.0334919 16.2996277,28.3634831 16.2942956,27.4751494 C13.274331,28.1183579 12.6371458,26.0475404 12.6371458,26.0475404 C12.1432606,24.8173388 11.431426,24.4898516 11.431426,24.4898516 C10.4456552,23.8296478 11.5060753,23.8427211 11.5060753,23.8427211 C12.595822,23.9178928 13.1690221,24.9402282 13.1690221,24.9402282 C14.1374637,26.5672058 15.7104313,26.0972191 16.3289542,25.8246399 C16.427598,25.1369821 16.7081994,24.667649 17.0181274,24.4016065 C14.6073544,24.1329493 12.0726103,23.2191227 12.0726103,19.1389324 C12.0726103,17.9767122 12.4958453,17.0256265 13.1903505,16.2817533 C13.0783765,16.0124424 12.7057965,14.929316 13.2969924,13.4637943 C13.2969924,13.4637943 14.2081139,13.177488 16.2822984,14.5554184 C17.1480972,14.3187909 18.0772145,14.2011308 19.0003333,14.1965551 C19.9227855,14.2011308 20.8512363,14.3187909 21.7183681,14.5554184 C23.7912196,13.177488 24.7010081,13.4637943 24.7010081,13.4637943 C25.293537,14.929316 24.920957,16.0124424 24.8096495,16.2817533 C25.5054878,17.0256265 25.9253902,17.9767122 25.9253902,19.1389324 C25.9253902,23.2295813 23.386647,24.129681 20.9685424,24.3931088 C21.3577853,24.7219034 21.7050379,25.3716486 21.7050379,26.3652226 C21.7050379,27.788256 21.6917076,28.9367491 21.6917076,29.2858074 C21.6917076,29.5708063 21.8876621,29.9022155 22.4382008,29.7982824 C26.7491987,28.3870151 29.8571429,24.3989918 29.8571429,19.6958568 C29.8571429,13.8148135 24.9956063,9.04761905 18.9990002,9.04761905" fill="#5B5B5B"></path>
                        </g>
                    </g>
                </g>
            </g>
        </g>
    </g>
</svg>