<?xml version="1.0" encoding="UTF-8"?>
<svg width="25px" height="20px" viewBox="0 0 25 20" version="1.1" xmlns="http://www.w3.org/2000/svg" xmlns:xlink="http://www.w3.org/1999/xlink">
    <!-- Generator: Sketch 44 (41411) - http://www.bohemiancoding.com/sketch -->
    <title>twitter</title>
    <desc>Created with Sketch.</desc>
    <defs></defs>
    <g id="Page-1" stroke="none" stroke-width="1" fill="none" fill-rule="evenodd">
        <g id="PIPELINE_CARD_Colorless_V3" transform="translate(-1053.000000, -860.000000)" fill-rule="nonzero" fill="#1ABC9C">
            <g id="V3-Copy" transform="translate(230.000000, 218.000000)">
                <g id="V2">
                    <g id="follow" transform="translate(709.000000, 633.000000)">
                        <g id="twitter" transform="translate(107.000000, 0.000000)">
                            <path d="M14.9205867,28.952381 C24.1393765,28.952381 29.180774,21.2952397 29.180774,14.6552373 C29.180774,14.4377474 29.1763556,14.2212438 29.1666253,14.0057182 C30.1452303,13.2964333 30.9957919,12.4113024 31.6666667,11.4036973 C30.7686421,11.8038957 29.8022513,12.0733026 28.7884795,12.1947823 C29.8232366,11.5726889 30.6176461,10.5886138 30.992431,9.41548531 C30.0240728,9.99104479 28.9516896,10.4093653 27.8098746,10.6352135 C26.8952913,9.65851045 25.5932171,9.04761905 24.1514594,9.04761905 C21.3836912,9.04761905 19.1392446,11.2979645 19.1392446,14.0718372 C19.1392446,14.466151 19.1832154,14.8496985 19.2692061,15.2175976 C15.1037001,15.0074552 11.4100362,13.0079344 8.9380299,9.96753127 C8.50760112,10.7101181 8.25940861,11.5727136 8.25940861,12.4931189 C8.25940861,14.2364565 9.14423536,15.7754788 10.4897557,16.6758306 C9.66747504,16.6503594 8.89503457,16.4240527 8.21989717,16.0473678 C8.2191594,16.0684502 8.2191594,16.0890042 8.2191594,16.1115365 C8.2191594,18.5450753 9.94676027,20.5768872 12.2400633,21.0372953 C11.818914,21.1524056 11.375812,21.2141275 10.9184794,21.2141275 C10.5960267,21.2141275 10.2818698,21.1823083 9.97651681,21.1235088 C10.6145856,23.1200627 12.4648359,24.5729536 14.6584586,24.6135537 C12.9430719,25.9615748 10.7821567,26.7644536 8.43360324,26.7644536 C8.02955367,26.7644536 7.63039794,26.7414118 7.23809524,26.694896 C9.45622819,28.1203367 12.090051,28.9520629 14.9208572,28.9520629" id="Shape"></path>
                        </g>
                    </g>
                </g>
            </g>
        </g>
    </g>
</svg>
